<?xml version="1.0" encoding="UTF-8"?>
<svg version="1.1" xmlns="http://www.w3.org/2000/svg" width="512" height="512">
<path d="M0 0 C1.22987892 -0.01058945 1.22987892 -0.01058945 2.48460388 -0.02139282 C33.37509314 -0.2269242 61.47987218 3.06937535 90.20703125 15.203125 C90.87476563 15.48349609 91.5425 15.76386719 92.23046875 16.05273438 C115.4398164 25.97144615 135.07580422 40.87217281 153.20703125 58.203125 C153.88378906 58.83863281 154.56054688 59.47414062 155.2578125 60.12890625 C191.85997144 95.38477888 209.16519096 146.42446685 211.20703125 196.203125 C211.95726562 195.26726562 212.7075 194.33140625 213.48046875 193.3671875 C221.24253699 184.07779733 234.53033385 180.36632091 246.20703125 179.203125 C251.20788493 179.00474818 256.20460706 179.08160862 261.20703125 179.203125 C260.71332031 179.96238281 260.21960938 180.72164062 259.7109375 181.50390625 C259.07027344 182.49777344 258.42960937 183.49164063 257.76953125 184.515625 C257.13144531 185.50175781 256.49335938 186.48789063 255.8359375 187.50390625 C252.27325096 193.40754269 252.56682757 199.49521307 253.20703125 206.203125 C255.33901769 214.17675428 258.73006051 221.73407674 262.20703125 229.203125 C260.93859375 229.53183594 260.93859375 229.53183594 259.64453125 229.8671875 C250.78737532 232.34316518 244.48448605 235.00125987 238.76953125 242.328125 C234.71979831 249.77963362 236.02787358 258.09641603 237.20703125 266.203125 C235.96953125 266.14125 234.73203125 266.079375 233.45703125 266.015625 C222.81058951 266.06584406 213.2191557 269.14579661 205.6484375 276.7734375 C200.70531615 283.31537258 200.30918687 292.31778399 199.20703125 300.203125 C198.34078125 299.605 197.47453125 299.006875 196.58203125 298.390625 C193.58083181 296.38267966 190.46927419 294.75657402 187.20703125 293.203125 C186.60117187 294.27949219 185.9953125 295.35585938 185.37109375 296.46484375 C179.94517592 305.97606841 174.21327367 314.76165521 167.20703125 323.203125 C166.72443848 323.78723145 166.2418457 324.37133789 165.74462891 324.97314453 C156.44506535 336.16911313 146.72779984 346.2425272 135.20703125 355.203125 C134.65805176 355.63383301 134.10907227 356.06454102 133.54345703 356.50830078 C118.07195354 368.56486416 100.9717256 377.0494848 83.20703125 385.203125 C87.47537467 392.17056794 92.03148594 398.41214839 97.58203125 404.390625 C98.10571289 404.95483154 98.62939453 405.51903809 99.16894531 406.1003418 C101.88905005 409.03409299 101.88905005 409.03409299 105.20703125 411.203125 C105.25714355 410.63803223 105.30725586 410.07293945 105.35888672 409.49072266 C105.59069397 406.93558647 105.83618915 404.38194738 106.08203125 401.828125 C106.16066406 400.93867188 106.23929687 400.04921875 106.3203125 399.1328125 C106.40410156 398.28203125 106.48789062 397.43125 106.57421875 396.5546875 C106.68419189 395.37640381 106.68419189 395.37640381 106.79638672 394.17431641 C107.20703125 392.203125 107.20703125 392.203125 109.20703125 390.203125 C110.85703125 392.183125 112.50703125 394.163125 114.20703125 396.203125 C115.19703125 395.8525 116.18703125 395.501875 117.20703125 395.140625 C122.57557596 393.61917508 127.20100173 394.15831796 132.20703125 396.765625 C132.86703125 397.24 133.52703125 397.714375 134.20703125 398.203125 C134.97015625 397.543125 135.73328125 396.883125 136.51953125 396.203125 C139.20703125 394.203125 139.20703125 394.203125 142.20703125 394.203125 C141.54703125 401.133125 140.88703125 408.063125 140.20703125 415.203125 C149.13232211 409.57169148 156.71172565 403.58656037 164.20703125 396.203125 C164.80257813 395.62046875 165.398125 395.0378125 166.01171875 394.4375 C169.88112628 390.29618815 172.44134529 385.39249008 175.17675781 380.47094727 C183.43737332 365.73977827 194.89420988 354.36885177 211.20703125 349.203125 C234.16380238 344.6245779 257.56251504 352.6555659 277.20703125 364.203125 C275.83801408 366.94115935 274.50021144 366.9590867 271.64453125 367.953125 C260.77590483 372.18584256 254.81007619 379.13758119 250.01953125 389.640625 C245.62691352 401.40918 244.78700632 414.76365974 244.20703125 427.203125 C243.20349609 426.87828125 243.20349609 426.87828125 242.1796875 426.546875 C229.86355087 422.97602196 215.80651091 421.82655752 204.20703125 428.203125 C201.29036458 430.28645833 201.29036458 430.28645833 199.20703125 433.203125 C198.7171875 433.81800781 198.22734375 434.43289063 197.72265625 435.06640625 C193.15943798 441.24482307 191.1438802 447.83170575 189.20703125 455.203125 C185.88897203 453.7556495 183.72255059 451.91081961 181.14453125 449.390625 C173.20179852 442.19252347 162.18782478 437.56199204 151.33203125 437.96484375 C141.1462984 439.10699394 133.56247433 443.81612961 127.12890625 451.7734375 C124.77214334 455.09072983 122.6269642 458.45227231 120.640625 462.00390625 C120.16753906 462.72964844 119.69445312 463.45539063 119.20703125 464.203125 C118.54703125 464.203125 117.88703125 464.203125 117.20703125 464.203125 C116.77132813 463.1409375 116.335625 462.07875 115.88671875 460.984375 C111.36133633 450.15674147 106.96848391 440.14178253 96.20703125 434.203125 C84.92286167 430.30835252 72.96042532 431.12635256 62.20703125 436.203125 C59.15102855 437.97159249 56.20713655 439.82537089 53.2890625 441.8125 C51.20703125 443.203125 51.20703125 443.203125 50.20703125 443.203125 C50.09488281 441.67945313 50.09488281 441.67945313 49.98046875 440.125 C49.03205578 429.48357289 47.06429537 419.40790083 38.95703125 411.703125 C30.37346163 405.23683588 20.77547787 404.03998943 10.39453125 404.140625 C9.06905273 404.14739258 9.06905273 404.14739258 7.71679688 404.15429688 C5.54684566 404.16602634 3.37692953 404.18396005 1.20703125 404.203125 C1.53703125 401.893125 1.86703125 399.583125 2.20703125 397.203125 C1.23507813 397.17734375 0.263125 397.1515625 -0.73828125 397.125 C-53.15392991 395.18655146 -101.37157531 370.30204109 -136.79296875 332.203125 C-139.93546772 328.63810517 -142.8991105 324.97222359 -145.79296875 321.203125 C-146.96085937 319.68525391 -146.96085937 319.68525391 -148.15234375 318.13671875 C-170.99238505 287.68638485 -186.65781239 248.70263797 -187.03125 210.296875 C-187.04104385 209.4628717 -187.05083771 208.62886841 -187.06092834 207.76959229 C-187.23042992 189.58999411 -187.17306947 171.96353338 -182.79296875 154.203125 C-182.57866211 153.31367188 -182.36435547 152.42421875 -182.14355469 151.5078125 C-178.3655946 136.24199416 -173.04048587 121.18208217 -165.79296875 107.203125 C-167.77296875 107.203125 -169.75296875 107.203125 -171.79296875 107.203125 C-170.10687655 101.37719668 -168.26269072 95.6272171 -166.29296875 89.890625 C-160.70233361 73.12918894 -156.82080653 54.88789795 -164.79296875 38.203125 C-168.2143235 31.38013513 -172.71741228 23.74090323 -179.79296875 20.203125 C-179.79296875 19.543125 -179.79296875 18.883125 -179.79296875 18.203125 C-155.10897081 13.59205716 -122.66967629 16.18133975 -101.125 30.26171875 C-98.83606657 31.44814667 -98.83606657 31.44814667 -96.5 30.65234375 C-93.61202356 29.10625535 -90.75573878 27.51850543 -87.92041016 25.87792969 C-61.64144913 10.71326586 -30.58364262 0.17547844 0 0 Z " fill="#F7B231" transform="translate(210.79296875,23.796875)"/>
<path d="M0 0 C19.00015106 15.8005535 27.11749364 36.70736904 29.65942383 60.98413086 C31.72508947 80.30032702 40.50379691 98.43806655 52 114 C55.59883451 105.81412643 58.5198846 97.59034383 61 89 C63.90281355 91.85402677 66.49918443 94.7846657 69 98 C69.66 97.67 70.32 97.34 71 97 C76.25645497 96.32732752 80.62474691 96.24463475 85.0625 99.375 C88 102 88 102 89 104 C93.19469571 103.40075776 97.00999834 102.42500059 101 101 C100.35472416 104.41915869 99.55372548 107.73920737 98.58984375 111.08203125 C98.32236328 112.01337891 98.05488281 112.94472656 97.77929688 113.90429688 C97.50150391 114.86400391 97.22371094 115.82371094 96.9375 116.8125 C96.65583984 117.79154297 96.37417969 118.77058594 96.08398438 119.77929688 C95.39111599 122.18672093 94.69639849 124.59359519 94 127 C116.5501506 119.08345777 133.77008928 109.43373447 149.69677734 91.46289062 C161.48042639 78.23553486 177.47661269 66.98278561 195.63671875 65.75390625 C225.47195661 65.24106596 252.32764957 80.43698139 274 100 C274.33 100.66 274.66 101.32 275 102 C274.05640625 102.14695312 273.1128125 102.29390625 272.140625 102.4453125 C257.37198093 105.02537683 245.80089597 110.44591297 236.10546875 122.3203125 C226.83557373 135.67063535 222.18602883 152.463393 218 168 C214.65461223 166.71740434 211.5296591 165.25588724 208.375 163.5625 C196.09341121 157.47573019 181.33328557 155.30872691 168 159.4375 C155.71284719 164.82726335 148.41529286 176.21377436 143 188 C139.97784646 185.14463198 137.65060675 182.1811839 135.3125 178.75 C127.75087172 168.2918364 117.29828786 159.85179673 104.31640625 157.25 C89.6982019 155.67231859 80.36782174 157.96410172 68.75390625 166.76953125 C63.61402621 170.93246955 58.67752959 175.32247041 54 180 C53.8040625 178.741875 53.608125 177.48375 53.40625 176.1875 C51.11675173 162.68502498 47.39120171 146.03934636 35.73828125 137.3046875 C22.55783844 129.53650381 8.11961477 126.49099435 -6.97070312 130.33520508 C-12.03771589 131.7258661 -17.01886228 133.33220251 -22 135 C-21.97905273 134.23445801 -21.95810547 133.46891602 -21.93652344 132.68017578 C-21.85261638 129.16192115 -21.80110404 125.64387797 -21.75 122.125 C-21.71648437 120.92101562 -21.68296875 119.71703125 -21.6484375 118.4765625 C-21.51921321 106.58792787 -24.26386475 98.86013773 -32.515625 90.2578125 C-44.1140496 79.71710587 -57.96990946 77.33914054 -73 76 C-71.3139078 70.17407168 -69.46972197 64.4240921 -67.5 58.6875 C-61.90936486 41.92606394 -58.02783778 23.68477295 -66 7 C-69.42135475 0.17701013 -73.92444353 -7.46222177 -81 -11 C-81 -11.66 -81 -12.32 -81 -13 C-56.48289778 -17.57989106 -21.03685342 -15.26380888 0 0 Z " fill="#32416D" transform="translate(112,55)"/>
<path d="M0 0 C11.91993688 9.86103869 18.17689456 24.03622464 22.75 38.5 C26.45960374 48.89605 37.77911544 65.88955772 48 71 C48.07516846 70.15236084 48.07516846 70.15236084 48.15185547 69.28759766 C48.38366272 66.73246147 48.6291579 64.17882238 48.875 61.625 C48.95363281 60.73554688 49.03226562 59.84609375 49.11328125 58.9296875 C49.23896484 57.65351563 49.23896484 57.65351563 49.3671875 56.3515625 C49.44050293 55.56604004 49.51381836 54.78051758 49.58935547 53.97119141 C50 52 50 52 52 50 C53.65 51.98 55.3 53.96 57 56 C57.99 55.649375 58.98 55.29875 60 54.9375 C65.36854471 53.41605008 69.99397048 53.95519296 75 56.5625 C75.66 57.036875 76.32 57.51125 77 58 C78.1446875 57.01 78.1446875 57.01 79.3125 56 C82 54 82 54 85 54 C84.34 60.93 83.68 67.86 83 75 C91.92529086 69.36856648 99.5046944 63.38343537 107 56 C107.59554687 55.41734375 108.19109375 54.8346875 108.8046875 54.234375 C112.67409503 50.09306315 115.23431404 45.18936508 117.96972656 40.26782227 C126.23034207 25.53665327 137.68717863 14.16572677 154 9 C176.95677113 4.4214529 200.35548379 12.4524409 220 24 C218.63098283 26.73803435 217.29318019 26.7559617 214.4375 27.75 C203.56887358 31.98271756 197.60304494 38.93445619 192.8125 49.4375 C188.41988227 61.206055 187.57997507 74.56053474 187 87 C186.33097656 86.7834375 185.66195313 86.566875 184.97265625 86.34375 C172.65651962 82.77289696 158.59947966 81.62343252 147 88 C144.08333333 90.08333333 144.08333333 90.08333333 142 93 C141.26523437 93.92232422 141.26523437 93.92232422 140.515625 94.86328125 C135.95240673 101.04169807 133.93684895 107.62858075 132 115 C128.68194078 113.5525245 126.51551934 111.70769461 123.9375 109.1875 C115.99476727 101.98939847 104.98079353 97.35886704 94.125 97.76171875 C83.93926715 98.90386894 76.35544308 103.61300461 69.921875 111.5703125 C67.56511209 114.88760483 65.41993295 118.24914731 63.43359375 121.80078125 C62.96050781 122.52652344 62.48742187 123.25226563 62 124 C61.34 124 60.68 124 60 124 C59.56429687 122.9378125 59.12859375 121.875625 58.6796875 120.78125 C54.15430508 109.95361647 49.76145266 99.93865753 39 94 C27.71583042 90.10522752 15.75339407 90.92322756 5 96 C1.9439973 97.76846749 -0.9998947 99.62224589 -3.91796875 101.609375 C-6 103 -6 103 -7 103 C-7.11214844 101.47632813 -7.11214844 101.47632813 -7.2265625 99.921875 C-8.17497547 89.28044789 -10.14273588 79.20477583 -18.25 71.5 C-26.83356962 65.03371088 -36.43155338 63.83686443 -46.8125 63.9375 C-47.69615234 63.94201172 -48.57980469 63.94652344 -49.49023438 63.95117188 C-51.66018559 63.96290134 -53.83010172 63.98083505 -56 64 C-55.85925049 63.35748291 -55.71850098 62.71496582 -55.57348633 62.05297852 C-54.07053388 54.62830069 -53.6653988 47.50053178 -53.6875 39.9375 C-53.67138672 38.83083984 -53.65527344 37.72417969 -53.63867188 36.58398438 C-53.63164432 24.68633617 -56.56308564 15.39943343 -64 6 C-67.64414154 2.59381547 -71.51953808 0.15578766 -76 -2 C-76 -2.66 -76 -3.32 -76 -4 C-72.98094209 -4.81919421 -69.95946921 -5.62911767 -66.9375 -6.4375 C-65.66616211 -6.78264648 -65.66616211 -6.78264648 -64.36914062 -7.13476562 C-43.27887016 -12.75340911 -18.19239833 -13.47237746 0 0 Z " fill="#31406D" transform="translate(268,364)"/>
<path d="M0 0 C-0.49371094 0.75925781 -0.98742187 1.51851562 -1.49609375 2.30078125 C-2.13675781 3.29464844 -2.77742187 4.28851563 -3.4375 5.3125 C-4.07558594 6.29863281 -4.71367187 7.28476563 -5.37109375 8.30078125 C-8.93378029 14.20441769 -8.64020368 20.29208807 -8 27 C-5.86801356 34.97362928 -2.47697074 42.53095174 1 50 C0.154375 50.21914062 -0.69125 50.43828125 -1.5625 50.6640625 C-10.41965593 53.14004018 -16.7225452 55.79813487 -22.4375 63.125 C-26.48723294 70.57650862 -25.17915767 78.89329103 -24 87 C-25.2375 86.938125 -26.475 86.87625 -27.75 86.8125 C-38.39644174 86.86271906 -47.98787555 89.94267161 -55.55859375 97.5703125 C-60.5017151 104.11224758 -60.89784438 113.11465899 -62 121 C-64.8239277 119.12145646 -67.64586301 117.24117463 -70.44921875 115.33203125 C-71.18785156 114.83058594 -71.92648437 114.32914062 -72.6875 113.8125 C-73.43386719 113.30332031 -74.18023437 112.79414063 -74.94921875 112.26953125 C-79.69009984 109.3347001 -84.60168936 109.44209599 -90 110 C-98.33736585 112.43579136 -107.10893766 117.76973393 -112 125 C-115.46261088 123.84579637 -115.72840465 123.20025943 -117.625 120.25 C-121.4738329 114.9791845 -125.91648327 111.8180444 -132.37890625 110.5234375 C-141.40982614 109.97259487 -149.51936791 114.35356003 -157 119 C-157.43570313 117.9378125 -157.87140625 116.875625 -158.3203125 115.78125 C-162.91411429 104.64741103 -162.91411429 104.64741103 -170 95 C-170.46277344 94.45085937 -170.92554688 93.90171875 -171.40234375 93.3359375 C-176.85202835 87.70598343 -184.62066168 86.61452705 -192 85 C-183.10862594 73.70555187 -171.657581 65.552527 -158 61 C-141.82907887 59.8803335 -132.67422241 63.61040137 -120 74 C-118.87011384 75.05730247 -117.74427611 76.11897193 -116.625 77.1875 C-109.49697035 83.45946727 -99.1940745 86.41481474 -90 88 C-90.3609375 87.22914063 -90.721875 86.45828125 -91.09375 85.6640625 C-91.5578125 84.66117187 -92.021875 83.65828125 -92.5 82.625 C-92.9640625 81.62726563 -93.428125 80.62953125 -93.90625 79.6015625 C-95 77 -95 77 -95 75 C-92.69 75.33 -90.38 75.66 -88 76 C-87.5359375 75.0409375 -87.5359375 75.0409375 -87.0625 74.0625 C-86 72 -86 72 -85 71 C-83.700625 70.896875 -82.40125 70.79375 -81.0625 70.6875 C-78.9144387 70.50455836 -78.9144387 70.50455836 -77 70 C-75.4100567 68.07935207 -75.4100567 68.07935207 -75 66 C-74.34 66 -73.68 66 -73 66 C-71.02 69.96 -69.04 73.92 -67 78 C-61.4757761 66.5832706 -58.00088215 57.26625708 -57.5625 44.625 C-57.14340542 33.06252023 -55.04095077 21.83639966 -47 13 C-33.60719866 1.16066947 -17.08532141 -0.41502805 0 0 Z " fill="#465481" transform="translate(472,203)"/>
<path d="M0 0 C13.45038051 10.13122976 13.45038051 10.13122976 15.0234375 13.27734375 C9.0296003 13.81739761 5.91343168 12.35268011 1.2734375 8.83984375 C-18.65523169 -5.25093033 -40.77744207 -12.76547188 -65.26953125 -9.25 C-83.67374656 -4.81492936 -98.54112037 8.38227654 -110.5390625 22.40234375 C-122.57407475 36.23851429 -139.57857914 44.96811029 -156.9765625 50.27734375 C-157.9665625 50.27734375 -158.9565625 50.27734375 -159.9765625 50.27734375 C-159.60373868 48.37685159 -159.20218383 46.48198508 -158.7890625 44.58984375 C-158.56863281 43.53410156 -158.34820312 42.47835937 -158.12109375 41.390625 C-155.96045605 35.51339548 -151.7720493 32.9037148 -146.35546875 30.34936523 C-145.33259766 29.8805896 -145.33259766 29.8805896 -144.2890625 29.40234375 C-131.98808399 23.4992719 -121.75283195 15.83231549 -112.87890625 5.44921875 C-79.98856078 -32.10115513 -37.76903159 -27.06622037 0 0 Z " fill="#202E50" transform="translate(371.9765625,143.72265625)"/>
<path d="M0 0 C8.85376826 6.41749646 14.94590609 15.91365283 16.703125 26.75 C16.92530547 31.33102517 16.888266 35.91410878 16.890625 40.5 C16.90287109 41.7375 16.91511719 42.975 16.92773438 44.25 C16.93863696 51.08228587 16.50922307 57.15381573 14.703125 63.75 C15.363125 63.42 16.023125 63.09 16.703125 62.75 C30.10296075 61.94468967 42.02741214 62.14726575 52.91796875 70.98046875 C59.67663927 77.67998242 62.75073516 85.19429928 63.328125 94.625 C63.44027344 96.35363281 63.44027344 96.35363281 63.5546875 98.1171875 C63.60367188 98.98601562 63.65265625 99.85484375 63.703125 100.75 C61.89237482 101.91938067 60.07947757 103.08543733 58.265625 104.25 C57.25628906 104.8996875 56.24695313 105.549375 55.20703125 106.21875 C52.703125 107.75 52.703125 107.75 51.703125 107.75 C51.59097656 106.22632813 51.59097656 106.22632813 51.4765625 104.671875 C50.52814953 94.03044789 48.56038912 83.95477583 40.453125 76.25 C31.86955538 69.78371088 22.27157162 68.58686443 11.890625 68.6875 C11.00697266 68.69201172 10.12332031 68.69652344 9.21289062 68.70117188 C7.04293941 68.71290134 4.87302328 68.73083505 2.703125 68.75 C2.84387451 68.10748291 2.98462402 67.46496582 3.12963867 66.80297852 C4.63259112 59.37830069 5.0377262 52.25053178 5.015625 44.6875 C5.03173828 43.58083984 5.04785156 42.47417969 5.06445312 41.33398438 C5.07148068 29.43633617 2.14003936 20.14943343 -5.296875 10.75 C-8.94101654 7.34381547 -12.81641308 4.90578766 -17.296875 2.75 C-17.296875 2.09 -17.296875 1.43 -17.296875 0.75 C-11.4540218 -1.19761773 -5.71398074 -3.10964938 0 0 Z " fill="#1F2D4F" transform="translate(209.296875,359.25)"/>
<path d="M0 0 C5.44492663 4.78745566 10.97210095 9.95815142 15 16 C14.505 17.485 14.505 17.485 14 19 C13.46375 18.50371094 12.9275 18.00742188 12.375 17.49609375 C-3.12475385 4.06127421 -24.48027454 -1.16479377 -44.64453125 -1.1328125 C-45.39139694 -1.13457993 -46.13826263 -1.13634735 -46.90776062 -1.13816833 C-49.99161123 -1.141483 -53.07363569 -1.13946491 -56.15698242 -1.07910156 C-69.23308336 -0.8547131 -69.23308336 -0.8547131 -73.78271484 -3.80371094 C-75.73213354 -5.77290061 -77.35820956 -7.77567733 -79 -10 C-79.66 -10.33 -80.32 -10.66 -81 -11 C-81 -11.66 -81 -12.32 -81 -13 C-56.6047681 -17.55712521 -20.90001471 -15.33263187 0 0 Z " fill="#1E2D50" transform="translate(112,55)"/>
<path d="M0 0 C7.67773945 4.9830831 14.69627516 14.0695111 17 23 C15.953125 25.3515625 15.953125 25.3515625 14.25 27.625 C13.69828125 28.38039063 13.1465625 29.13578125 12.578125 29.9140625 C12.05734375 30.60242188 11.5365625 31.29078125 11 32 C10.34 32.99 9.68 33.98 9 35 C8.34 35 7.68 35 7 35 C6.56429687 33.9378125 6.12859375 32.875625 5.6796875 31.78125 C1.15430508 20.95361647 -3.23854734 10.93865753 -14 5 C-19.74072727 2.88122784 -24.91478384 2.75591968 -30.9375 2.875 C-31.81212891 2.88402344 -32.68675781 2.89304687 -33.58789062 2.90234375 C-35.72538064 2.9257043 -37.86272786 2.96156753 -40 3 C-28.83145302 -6.17134799 -12.48204726 -6.56333001 0 0 Z " fill="#1E2D50" transform="translate(321,453)"/>
<path d="M0 0 C2.9297008 2.82506863 5.50174717 5.78796065 8 9 C8.66 8.67 9.32 8.34 10 8 C15.25645497 7.32732752 19.62474691 7.24463475 24.0625 10.375 C27 13 27 13 28 15 C32.19469571 14.40075776 36.00999834 13.42500059 40 12 C39.21824485 16.84688192 37.60155722 21.3766367 36 26 C33.7942579 24.93627051 31.89704279 23.92200211 29.9375 22.4375 C26.11950595 19.60479473 22.59852943 19.83864809 18 20 C16.68 20.33 15.36 20.66 14 21 C12.02 18.03 10.04 15.06 8 12 C6.85002226 15.2277443 5.70488739 18.45706989 4.5625 21.6875 C4.23701172 22.59951172 3.91152344 23.51152344 3.57617188 24.45117188 C3.10727539 25.78051758 3.10727539 25.78051758 2.62890625 27.13671875 C2.34088135 27.94842529 2.05285645 28.76013184 1.75610352 29.59643555 C0.98497826 32.04775234 0.45817775 34.47313987 0 37 C-4.24864756 35.48262587 -6.01477238 32.97045524 -8 29 C-7.62736003 23.30822504 -6.33479526 18.21205846 -4.5625 12.8125 C-4.34529297 12.12736328 -4.12808594 11.44222656 -3.90429688 10.73632812 C-2.73780179 7.09672333 -1.47243096 3.52698579 0 0 Z " fill="#23304F" transform="translate(173,144)"/>
<path d="M0 0 C0.66 0 1.32 0 2 0 C7.19115287 8.83703232 11.3631448 16.5611126 12 27 C12.07992187 28.01320313 12.15984375 29.02640625 12.2421875 30.0703125 C12.79306442 43.25895417 8.3039187 55.70308943 4 68 C0.04 68 -3.92 68 -8 68 C-6.29766238 62.17621342 -4.47053476 56.42645925 -2.5 50.6875 C3.00751056 34.17528201 6.35285469 16.82750201 0 0 Z " fill="#1E2D50" transform="translate(47,63)"/>
<path d="M0 0 C-0.556875 0.40089844 -1.11375 0.80179687 -1.6875 1.21484375 C-11.12704768 8.24666896 -17.0881024 15.90597884 -23 26 C-31.98476333 41.29032266 -43.81191304 53.24856153 -60 61 C-60.495 59.515 -60.495 59.515 -61 58 C-60.38253906 57.52691406 -59.76507813 57.05382812 -59.12890625 56.56640625 C-49.08079725 48.72062251 -41.87095688 41.31292127 -35.59423828 30.24072266 C-32.48499289 24.75674709 -29.19761227 19.72834485 -25 15 C-24.38769531 14.30648438 -23.77539062 13.61296875 -23.14453125 12.8984375 C-18.82681956 8.29632564 -6.73580317 -3.36790158 0 0 Z " fill="#1E2D50" transform="translate(421,375)"/>
<path d="M0 0 C-0.31182069 1.41681634 -0.62448737 2.83344651 -0.9375 4.25 C-1.11152344 5.03890625 -1.28554688 5.8278125 -1.46484375 6.640625 C-1.947556 8.76878703 -2.46163178 10.88532842 -3 13 C-6.31805922 11.5525245 -8.48448066 9.70769461 -11.0625 7.1875 C-20.71205031 -1.55740497 -32.24660336 -4.47041217 -45 -4 C-33.76206347 -18.04742067 -11.68955953 -7.86797276 0 0 Z " fill="#1E2D50" transform="translate(403,466)"/>
<path d="M0 0 C0.66 0.33 1.32 0.66 2 1 C1.34 1.66 0.68 2.32 0 3 C0.845625 3.21914063 1.69125 3.43828125 2.5625 3.6640625 C14.7844802 7.08066151 21.67821516 11.88898422 28 23 C30.22290683 27.57332734 32.13897417 32.26904057 34 37 C32.35 38.65 30.7 40.3 29 42 C27.15658897 39.23488345 25.75581244 36.44830152 24.33569336 33.45214844 C19.88382576 24.14263575 15.22723326 14.92043942 5 11 C1.03008155 9.84792568 -2.96067899 8.87551785 -7 8 C-6.02133662 6.85373678 -5.04205413 5.70800212 -4.0625 4.5625 C-3.51722656 3.92441406 -2.97195313 3.28632813 -2.41015625 2.62890625 C-1.63204305 1.73008851 -0.84063472 0.84063472 0 0 Z " fill="#37446D" transform="translate(287,280)"/>
<path d="M0 0 C0.66 0.33 1.32 0.66 2 1 C1.60167969 1.49628906 1.20335937 1.99257812 0.79296875 2.50390625 C-6.26261035 11.55084101 -9.11726607 20.71184129 -9.22607422 32.09155273 C-9.34437493 44.30911909 -11.90824042 55.78864126 -19 66 C-19.66 66 -20.32 66 -21 66 C-20.61097849 61.03997581 -19.65738645 56.88342826 -18 52.1875 C-16.15597048 46.51710922 -15.66182002 41.3997125 -15.5 35.5 C-15.13054442 23.72054413 -12.77384078 13.22522282 -5 4 C-2.125 1.4375 -2.125 1.4375 0 0 Z " fill="#37446D" transform="translate(430,212)"/>
<path d="M0 0 C3.16426203 2.87229771 5.90361215 6.08731217 8.56640625 9.421875 C7.90640625 11.071875 7.24640625 12.721875 6.56640625 14.421875 C5.24640625 14.421875 3.92640625 14.421875 2.56640625 14.421875 C1.1796875 12.84765625 1.1796875 12.84765625 -0.12109375 10.734375 C-3.48693142 6.03222461 -6.84242349 3.13051096 -12.43359375 1.421875 C-17.13466195 1.038825 -21.72992215 1.12078649 -26.43359375 1.421875 C-19.62574103 -4.17028974 -7.41556736 -5.12956539 0 0 Z " fill="#36436D" transform="translate(354.43359375,312.578125)"/>
<path d="M0 0 C-0.33 2.97 -0.66 5.94 -1 9 C-2.2065625 8.195625 -2.2065625 8.195625 -3.4375 7.375 C-3.97890625 7.01535156 -4.5203125 6.65570313 -5.078125 6.28515625 C-6.48908838 5.34164618 -7.89457118 4.3899268 -9.296875 3.43359375 C-10.08578125 2.89863281 -10.8746875 2.36367188 -11.6875 1.8125 C-12.43386719 1.30332031 -13.18023437 0.79414063 -13.94921875 0.26953125 C-20.07629889 -3.52342312 -28.22229027 -2.42688626 -35 -1 C-23.61075059 -11.39887989 -11.64682054 -6.41229445 0 0 Z " fill="#33426D" transform="translate(411,315)"/>
<path d="M0 0 C0 2.97 0 5.94 0 9 C-0.66902344 8.79503906 -1.33804687 8.59007812 -2.02734375 8.37890625 C-11.0147532 5.85760615 -19.72888928 5.31855712 -29 5 C-22.60062341 -1.88874068 -8.66984139 -2.88994713 0 0 Z " fill="#1E2D51" transform="translate(455,442)"/>
<path d="M0 0 C6.21362927 6.21362927 8.25 13.50812483 8.25 22.25 C8.18734461 23.83428633 8.11207895 25.41844153 8 27 C5.36 27.99 2.72 28.98 0 30 C0 20.1 0 10.2 0 0 Z " fill="#27324F" transform="translate(90,160)"/>
<path d="M0 0 C4.875 3.75 4.875 3.75 6 6 C7.32 6 8.64 6 10 6 C10 9.63 10 13.26 10 17 C5.65709027 17 3.82236398 14.90813775 0.6796875 12.08203125 C-1.20302322 9.74834563 -1.55168124 8.64643041 -1.5625 5.6875 C-1 2 -1 2 0 0 Z " fill="#1D2D4E" transform="translate(319,414)"/>
<path d="M0 0 C4.9361531 4.32995886 7.72794644 11.594931 9.0625 17.9375 C9 21 9 21 6.99609375 23.19140625 C6.33738281 23.78824219 5.67867187 24.38507813 5 25 C3.33333333 16.66666667 1.66666667 8.33333333 0 0 Z " fill="#212F50" transform="translate(161,210)"/>
<path d="M0 0 C0.33 1.65 0.66 3.3 1 5 C-0.85625 4.938125 -0.85625 4.938125 -2.75 4.875 C-8.61618748 4.85628808 -14.25262878 5.91081967 -20 7 C-15.41897033 1.65291186 -6.85071121 -0.74061743 0 0 Z " fill="#33426F" transform="translate(447,285)"/>
<path d="M0 0 C2.64 0.33 5.28 0.66 8 1 C8.99 3.97 9.98 6.94 11 10 C5.58741259 9.3986014 5.58741259 9.3986014 3.25 7.8125 C1.56293432 5.36625477 0.82025112 2.83933079 0 0 Z " fill="#3A466C" transform="translate(377,278)"/>
<path d="M0 0 C0.33 0.66 0.66 1.32 1 2 C-0.60064843 2.53154742 -2.20568874 3.04988353 -3.8125 3.5625 C-4.70582031 3.85253906 -5.59914063 4.14257812 -6.51953125 4.44140625 C-9 5 -9 5 -12 4 C-4.71428571 -0.57142857 -4.71428571 -0.57142857 0 0 Z " fill="#313F6A" transform="translate(472,251)"/>
<path d="M0 0 C0.66 0.33 1.32 0.66 2 1 C-1.96 4.465 -1.96 4.465 -6 8 C-6 5 -6 5 -4.6875 3.61328125 C-3.125 2.40885417 -1.5625 1.20442708 0 0 Z " fill="#2E3E69" transform="translate(430,212)"/>
<path d="M0 0 C0 0.99 0 1.98 0 3 C-2.5 5.1875 -2.5 5.1875 -5 7 C-5 6.01 -5 5.02 -5 4 C-2.5 1.8125 -2.5 1.8125 0 0 Z " fill="#4D5574" transform="translate(294,274)"/>
</svg>
